<mxfile host="Electron" agent="Mozilla/5.0 (Macintosh; Intel Mac OS X 10_15_7) AppleWebKit/537.36 (KHTML, like Gecko) draw.io/26.2.2 Chrome/134.0.6998.178 Electron/35.1.2 Safari/537.36" version="26.2.2">
  <diagram name="Page-1" id="8yxQzXgcwRmqOZLbL2iT">
    <mxGraphModel dx="1793" dy="940" grid="1" gridSize="10" guides="1" tooltips="1" connect="1" arrows="1" fold="1" page="1" pageScale="1" pageWidth="850" pageHeight="1100" math="0" shadow="0">
      <root>
        <mxCell id="0" />
        <mxCell id="1" parent="0" />
        <mxCell id="xqlagRpHaZFe84Ld7Fl1-120" value="" style="rounded=0;whiteSpace=wrap;html=1;fillColor=none;strokeWidth=1;strokeColor=#FFD966;" vertex="1" parent="1">
          <mxGeometry x="720" y="63" width="570" height="280" as="geometry" />
        </mxCell>
        <mxCell id="xqlagRpHaZFe84Ld7Fl1-32" style="edgeStyle=orthogonalEdgeStyle;rounded=0;orthogonalLoop=1;jettySize=auto;html=1;entryX=0.5;entryY=0;entryDx=0;entryDy=0;entryPerimeter=0;exitX=0.5;exitY=0;exitDx=0;exitDy=0;" edge="1" parent="1" source="xqlagRpHaZFe84Ld7Fl1-1" target="xqlagRpHaZFe84Ld7Fl1-11">
          <mxGeometry relative="1" as="geometry">
            <Array as="points">
              <mxPoint x="940" y="180" />
              <mxPoint x="1240" y="180" />
            </Array>
          </mxGeometry>
        </mxCell>
        <mxCell id="xqlagRpHaZFe84Ld7Fl1-1" value="ORM" style="rounded=0;whiteSpace=wrap;html=1;" vertex="1" parent="1">
          <mxGeometry x="900" y="230" width="80" height="40" as="geometry" />
        </mxCell>
        <mxCell id="xqlagRpHaZFe84Ld7Fl1-29" style="edgeStyle=orthogonalEdgeStyle;rounded=0;orthogonalLoop=1;jettySize=auto;html=1;entryX=0;entryY=0.5;entryDx=0;entryDy=0;" edge="1" parent="1" source="xqlagRpHaZFe84Ld7Fl1-2" target="xqlagRpHaZFe84Ld7Fl1-1">
          <mxGeometry relative="1" as="geometry" />
        </mxCell>
        <mxCell id="xqlagRpHaZFe84Ld7Fl1-2" value="Repository" style="rounded=0;whiteSpace=wrap;html=1;" vertex="1" parent="1">
          <mxGeometry x="740" y="170" width="80" height="40" as="geometry" />
        </mxCell>
        <mxCell id="xqlagRpHaZFe84Ld7Fl1-18" style="edgeStyle=orthogonalEdgeStyle;rounded=0;orthogonalLoop=1;jettySize=auto;html=1;entryX=0;entryY=0.5;entryDx=0;entryDy=0;" edge="1" parent="1" source="xqlagRpHaZFe84Ld7Fl1-3" target="xqlagRpHaZFe84Ld7Fl1-2">
          <mxGeometry relative="1" as="geometry" />
        </mxCell>
        <mxCell id="xqlagRpHaZFe84Ld7Fl1-19" style="edgeStyle=orthogonalEdgeStyle;rounded=0;orthogonalLoop=1;jettySize=auto;html=1;exitX=1;exitY=0.5;exitDx=0;exitDy=0;entryX=0;entryY=0.5;entryDx=0;entryDy=0;" edge="1" parent="1" source="xqlagRpHaZFe84Ld7Fl1-3" target="xqlagRpHaZFe84Ld7Fl1-15">
          <mxGeometry relative="1" as="geometry" />
        </mxCell>
        <mxCell id="xqlagRpHaZFe84Ld7Fl1-20" style="edgeStyle=orthogonalEdgeStyle;rounded=0;orthogonalLoop=1;jettySize=auto;html=1;entryX=0;entryY=0.5;entryDx=0;entryDy=0;" edge="1" parent="1" source="xqlagRpHaZFe84Ld7Fl1-3" target="xqlagRpHaZFe84Ld7Fl1-16">
          <mxGeometry relative="1" as="geometry" />
        </mxCell>
        <mxCell id="xqlagRpHaZFe84Ld7Fl1-119" style="edgeStyle=orthogonalEdgeStyle;rounded=0;orthogonalLoop=1;jettySize=auto;html=1;entryX=0;entryY=0.5;entryDx=0;entryDy=0;" edge="1" parent="1" source="xqlagRpHaZFe84Ld7Fl1-3" target="xqlagRpHaZFe84Ld7Fl1-121">
          <mxGeometry relative="1" as="geometry">
            <mxPoint x="740" y="100" as="targetPoint" />
            <Array as="points">
              <mxPoint x="630" y="96" />
            </Array>
          </mxGeometry>
        </mxCell>
        <mxCell id="xqlagRpHaZFe84Ld7Fl1-3" value="UoW" style="rounded=0;whiteSpace=wrap;html=1;" vertex="1" parent="1">
          <mxGeometry x="590" y="230" width="80" height="40" as="geometry" />
        </mxCell>
        <mxCell id="xqlagRpHaZFe84Ld7Fl1-21" style="edgeStyle=orthogonalEdgeStyle;rounded=0;orthogonalLoop=1;jettySize=auto;html=1;entryX=0;entryY=0.5;entryDx=0;entryDy=0;" edge="1" parent="1" source="xqlagRpHaZFe84Ld7Fl1-4" target="xqlagRpHaZFe84Ld7Fl1-3">
          <mxGeometry relative="1" as="geometry" />
        </mxCell>
        <mxCell id="xqlagRpHaZFe84Ld7Fl1-39" value="CRUD" style="edgeLabel;html=1;align=center;verticalAlign=middle;resizable=0;points=[];" vertex="1" connectable="0" parent="xqlagRpHaZFe84Ld7Fl1-21">
          <mxGeometry x="-0.15" y="1" relative="1" as="geometry">
            <mxPoint y="41" as="offset" />
          </mxGeometry>
        </mxCell>
        <mxCell id="xqlagRpHaZFe84Ld7Fl1-37" style="edgeStyle=orthogonalEdgeStyle;rounded=0;orthogonalLoop=1;jettySize=auto;html=1;" edge="1" parent="1" source="xqlagRpHaZFe84Ld7Fl1-4" target="xqlagRpHaZFe84Ld7Fl1-7">
          <mxGeometry relative="1" as="geometry" />
        </mxCell>
        <mxCell id="xqlagRpHaZFe84Ld7Fl1-38" value="invoke methods" style="edgeLabel;html=1;align=center;verticalAlign=middle;resizable=0;points=[];" vertex="1" connectable="0" parent="xqlagRpHaZFe84Ld7Fl1-37">
          <mxGeometry x="-0.7173" y="1" relative="1" as="geometry">
            <mxPoint x="14" as="offset" />
          </mxGeometry>
        </mxCell>
        <mxCell id="xqlagRpHaZFe84Ld7Fl1-40" style="edgeStyle=orthogonalEdgeStyle;rounded=0;orthogonalLoop=1;jettySize=auto;html=1;entryX=0.5;entryY=0;entryDx=0;entryDy=0;" edge="1" parent="1" source="xqlagRpHaZFe84Ld7Fl1-4" target="xqlagRpHaZFe84Ld7Fl1-84">
          <mxGeometry relative="1" as="geometry">
            <mxPoint x="440" y="520" as="targetPoint" />
          </mxGeometry>
        </mxCell>
        <mxCell id="xqlagRpHaZFe84Ld7Fl1-4" value="Services" style="rounded=0;whiteSpace=wrap;html=1;" vertex="1" parent="1">
          <mxGeometry x="390" y="390" width="100" height="40" as="geometry" />
        </mxCell>
        <mxCell id="xqlagRpHaZFe84Ld7Fl1-22" style="edgeStyle=orthogonalEdgeStyle;rounded=0;orthogonalLoop=1;jettySize=auto;html=1;" edge="1" parent="1" source="xqlagRpHaZFe84Ld7Fl1-5" target="xqlagRpHaZFe84Ld7Fl1-4">
          <mxGeometry relative="1" as="geometry" />
        </mxCell>
        <mxCell id="xqlagRpHaZFe84Ld7Fl1-5" value="API" style="rounded=0;whiteSpace=wrap;html=1;" vertex="1" parent="1">
          <mxGeometry x="210" y="390" width="90" height="40" as="geometry" />
        </mxCell>
        <mxCell id="xqlagRpHaZFe84Ld7Fl1-33" style="edgeStyle=orthogonalEdgeStyle;rounded=0;orthogonalLoop=1;jettySize=auto;html=1;entryX=1;entryY=0.5;entryDx=0;entryDy=0;" edge="1" parent="1" source="xqlagRpHaZFe84Ld7Fl1-7" target="xqlagRpHaZFe84Ld7Fl1-1">
          <mxGeometry relative="1" as="geometry" />
        </mxCell>
        <mxCell id="xqlagRpHaZFe84Ld7Fl1-113" style="edgeStyle=orthogonalEdgeStyle;rounded=0;orthogonalLoop=1;jettySize=auto;html=1;exitX=0.166;exitY=0.986;exitDx=0;exitDy=0;entryX=0.5;entryY=0;entryDx=0;entryDy=0;exitPerimeter=0;" edge="1" parent="1" source="xqlagRpHaZFe84Ld7Fl1-7" target="xqlagRpHaZFe84Ld7Fl1-99">
          <mxGeometry relative="1" as="geometry" />
        </mxCell>
        <mxCell id="xqlagRpHaZFe84Ld7Fl1-7" value="Domain Model" style="rounded=0;whiteSpace=wrap;html=1;" vertex="1" parent="1">
          <mxGeometry x="1040" y="230" width="120" height="40" as="geometry" />
        </mxCell>
        <mxCell id="xqlagRpHaZFe84Ld7Fl1-42" style="edgeStyle=orthogonalEdgeStyle;rounded=0;orthogonalLoop=1;jettySize=auto;html=1;entryX=1;entryY=0.5;entryDx=0;entryDy=0;" edge="1" parent="1" source="xqlagRpHaZFe84Ld7Fl1-11" target="xqlagRpHaZFe84Ld7Fl1-7">
          <mxGeometry relative="1" as="geometry" />
        </mxCell>
        <mxCell id="xqlagRpHaZFe84Ld7Fl1-11" value="DB" style="strokeWidth=2;html=1;shape=mxgraph.flowchart.database;whiteSpace=wrap;" vertex="1" parent="1">
          <mxGeometry x="1210" y="220" width="60" height="60" as="geometry" />
        </mxCell>
        <mxCell id="xqlagRpHaZFe84Ld7Fl1-30" style="edgeStyle=orthogonalEdgeStyle;rounded=0;orthogonalLoop=1;jettySize=auto;html=1;exitX=1;exitY=0.5;exitDx=0;exitDy=0;entryX=0;entryY=0.5;entryDx=0;entryDy=0;" edge="1" parent="1" source="xqlagRpHaZFe84Ld7Fl1-15" target="xqlagRpHaZFe84Ld7Fl1-1">
          <mxGeometry relative="1" as="geometry" />
        </mxCell>
        <mxCell id="xqlagRpHaZFe84Ld7Fl1-15" value="Repository" style="rounded=0;whiteSpace=wrap;html=1;" vertex="1" parent="1">
          <mxGeometry x="740" y="230" width="80" height="40" as="geometry" />
        </mxCell>
        <mxCell id="xqlagRpHaZFe84Ld7Fl1-31" style="edgeStyle=orthogonalEdgeStyle;rounded=0;orthogonalLoop=1;jettySize=auto;html=1;entryX=0;entryY=0.5;entryDx=0;entryDy=0;" edge="1" parent="1" source="xqlagRpHaZFe84Ld7Fl1-16" target="xqlagRpHaZFe84Ld7Fl1-1">
          <mxGeometry relative="1" as="geometry" />
        </mxCell>
        <mxCell id="xqlagRpHaZFe84Ld7Fl1-93" style="edgeStyle=orthogonalEdgeStyle;rounded=0;orthogonalLoop=1;jettySize=auto;html=1;exitX=0.5;exitY=1;exitDx=0;exitDy=0;entryX=0.5;entryY=0;entryDx=0;entryDy=0;" edge="1" parent="1" source="xqlagRpHaZFe84Ld7Fl1-16" target="xqlagRpHaZFe84Ld7Fl1-92">
          <mxGeometry relative="1" as="geometry" />
        </mxCell>
        <mxCell id="xqlagRpHaZFe84Ld7Fl1-16" value="Repository" style="rounded=0;whiteSpace=wrap;html=1;" vertex="1" parent="1">
          <mxGeometry x="740" y="290" width="80" height="40" as="geometry" />
        </mxCell>
        <mxCell id="xqlagRpHaZFe84Ld7Fl1-35" value="&lt;span style=&quot;text-align: center;&quot;&gt;&lt;b&gt;Abstract UoW&lt;/b&gt;&lt;/span&gt;" style="text;whiteSpace=wrap;html=1;" vertex="1" parent="1">
          <mxGeometry x="590" y="270" width="90" height="30" as="geometry" />
        </mxCell>
        <mxCell id="xqlagRpHaZFe84Ld7Fl1-36" value="&lt;span style=&quot;text-align: center;&quot;&gt;&lt;b&gt;Abstract Repo&lt;/b&gt;&lt;/span&gt;" style="text;whiteSpace=wrap;html=1;" vertex="1" parent="1">
          <mxGeometry x="735" y="140" width="90" height="30" as="geometry" />
        </mxCell>
        <mxCell id="xqlagRpHaZFe84Ld7Fl1-70" style="edgeStyle=orthogonalEdgeStyle;rounded=0;orthogonalLoop=1;jettySize=auto;html=1;exitX=0.25;exitY=1;exitDx=0;exitDy=0;entryX=0;entryY=0.5;entryDx=0;entryDy=0;" edge="1" parent="1" source="xqlagRpHaZFe84Ld7Fl1-47" target="xqlagRpHaZFe84Ld7Fl1-63">
          <mxGeometry relative="1" as="geometry" />
        </mxCell>
        <mxCell id="xqlagRpHaZFe84Ld7Fl1-71" style="edgeStyle=orthogonalEdgeStyle;rounded=0;orthogonalLoop=1;jettySize=auto;html=1;exitX=0.25;exitY=1;exitDx=0;exitDy=0;entryX=0;entryY=0.5;entryDx=0;entryDy=0;" edge="1" parent="1" source="xqlagRpHaZFe84Ld7Fl1-47" target="xqlagRpHaZFe84Ld7Fl1-64">
          <mxGeometry relative="1" as="geometry" />
        </mxCell>
        <mxCell id="xqlagRpHaZFe84Ld7Fl1-72" style="edgeStyle=orthogonalEdgeStyle;rounded=0;orthogonalLoop=1;jettySize=auto;html=1;exitX=0.25;exitY=1;exitDx=0;exitDy=0;entryX=0;entryY=0.5;entryDx=0;entryDy=0;" edge="1" parent="1" source="xqlagRpHaZFe84Ld7Fl1-47" target="xqlagRpHaZFe84Ld7Fl1-69">
          <mxGeometry relative="1" as="geometry" />
        </mxCell>
        <mxCell id="xqlagRpHaZFe84Ld7Fl1-73" style="edgeStyle=orthogonalEdgeStyle;rounded=0;orthogonalLoop=1;jettySize=auto;html=1;exitX=0.25;exitY=1;exitDx=0;exitDy=0;entryX=0;entryY=0.5;entryDx=0;entryDy=0;" edge="1" parent="1" source="xqlagRpHaZFe84Ld7Fl1-47" target="xqlagRpHaZFe84Ld7Fl1-68">
          <mxGeometry relative="1" as="geometry" />
        </mxCell>
        <mxCell id="xqlagRpHaZFe84Ld7Fl1-107" style="edgeStyle=orthogonalEdgeStyle;rounded=0;orthogonalLoop=1;jettySize=auto;html=1;entryX=0;entryY=0.5;entryDx=0;entryDy=0;" edge="1" parent="1" source="xqlagRpHaZFe84Ld7Fl1-47" target="xqlagRpHaZFe84Ld7Fl1-54">
          <mxGeometry relative="1" as="geometry" />
        </mxCell>
        <mxCell id="xqlagRpHaZFe84Ld7Fl1-47" value="&lt;b&gt;E2E: &lt;/b&gt;Test API" style="rounded=0;whiteSpace=wrap;html=1;" vertex="1" parent="1">
          <mxGeometry x="210" y="760" width="90" height="40" as="geometry" />
        </mxCell>
        <mxCell id="xqlagRpHaZFe84Ld7Fl1-61" style="edgeStyle=orthogonalEdgeStyle;rounded=0;orthogonalLoop=1;jettySize=auto;html=1;exitX=0.25;exitY=1;exitDx=0;exitDy=0;entryX=0;entryY=0.5;entryDx=0;entryDy=0;" edge="1" parent="1" source="xqlagRpHaZFe84Ld7Fl1-54" target="xqlagRpHaZFe84Ld7Fl1-56">
          <mxGeometry relative="1" as="geometry" />
        </mxCell>
        <mxCell id="xqlagRpHaZFe84Ld7Fl1-104" style="edgeStyle=orthogonalEdgeStyle;rounded=0;orthogonalLoop=1;jettySize=auto;html=1;exitX=0.25;exitY=1;exitDx=0;exitDy=0;entryX=0;entryY=0.5;entryDx=0;entryDy=0;" edge="1" parent="1" source="xqlagRpHaZFe84Ld7Fl1-54" target="xqlagRpHaZFe84Ld7Fl1-103">
          <mxGeometry relative="1" as="geometry" />
        </mxCell>
        <mxCell id="xqlagRpHaZFe84Ld7Fl1-108" style="edgeStyle=orthogonalEdgeStyle;rounded=0;orthogonalLoop=1;jettySize=auto;html=1;entryX=0;entryY=0.5;entryDx=0;entryDy=0;" edge="1" parent="1" source="xqlagRpHaZFe84Ld7Fl1-54" target="xqlagRpHaZFe84Ld7Fl1-77">
          <mxGeometry relative="1" as="geometry" />
        </mxCell>
        <mxCell id="xqlagRpHaZFe84Ld7Fl1-54" value="&lt;b&gt;Unit: &lt;/b&gt;Services" style="rounded=0;whiteSpace=wrap;html=1;" vertex="1" parent="1">
          <mxGeometry x="390" y="760" width="90" height="40" as="geometry" />
        </mxCell>
        <mxCell id="xqlagRpHaZFe84Ld7Fl1-56" value="Fake UoW" style="rounded=0;whiteSpace=wrap;html=1;" vertex="1" parent="1">
          <mxGeometry x="440" y="820" width="90" height="30" as="geometry" />
        </mxCell>
        <mxCell id="xqlagRpHaZFe84Ld7Fl1-63" value="Test Client" style="rounded=0;whiteSpace=wrap;html=1;" vertex="1" parent="1">
          <mxGeometry x="260" y="820" width="90" height="30" as="geometry" />
        </mxCell>
        <mxCell id="xqlagRpHaZFe84Ld7Fl1-64" value="Real PostgresDB" style="rounded=0;whiteSpace=wrap;html=1;" vertex="1" parent="1">
          <mxGeometry x="260" y="870" width="90" height="30" as="geometry" />
        </mxCell>
        <mxCell id="xqlagRpHaZFe84Ld7Fl1-68" value="Real UoW" style="rounded=0;whiteSpace=wrap;html=1;" vertex="1" parent="1">
          <mxGeometry x="260" y="970" width="90" height="30" as="geometry" />
        </mxCell>
        <mxCell id="xqlagRpHaZFe84Ld7Fl1-69" value="Real PG Session" style="rounded=0;whiteSpace=wrap;html=1;" vertex="1" parent="1">
          <mxGeometry x="260" y="920" width="90" height="30" as="geometry" />
        </mxCell>
        <mxCell id="xqlagRpHaZFe84Ld7Fl1-117" style="edgeStyle=orthogonalEdgeStyle;rounded=0;orthogonalLoop=1;jettySize=auto;html=1;exitX=0.25;exitY=1;exitDx=0;exitDy=0;entryX=0;entryY=0.5;entryDx=0;entryDy=0;" edge="1" parent="1" source="xqlagRpHaZFe84Ld7Fl1-75" target="xqlagRpHaZFe84Ld7Fl1-116">
          <mxGeometry relative="1" as="geometry" />
        </mxCell>
        <mxCell id="xqlagRpHaZFe84Ld7Fl1-75" value="&lt;b&gt;Unit: &lt;/b&gt;Domain" style="rounded=0;whiteSpace=wrap;html=1;" vertex="1" parent="1">
          <mxGeometry x="1060" y="760" width="90" height="40" as="geometry" />
        </mxCell>
        <mxCell id="xqlagRpHaZFe84Ld7Fl1-110" style="edgeStyle=orthogonalEdgeStyle;rounded=0;orthogonalLoop=1;jettySize=auto;html=1;entryX=0;entryY=0.5;entryDx=0;entryDy=0;" edge="1" parent="1" source="xqlagRpHaZFe84Ld7Fl1-76" target="xqlagRpHaZFe84Ld7Fl1-78">
          <mxGeometry relative="1" as="geometry" />
        </mxCell>
        <mxCell id="xqlagRpHaZFe84Ld7Fl1-76" value="&lt;b&gt;Integration: &lt;/b&gt;Repo" style="rounded=0;whiteSpace=wrap;html=1;" vertex="1" parent="1">
          <mxGeometry x="740" y="760" width="90" height="40" as="geometry" />
        </mxCell>
        <mxCell id="xqlagRpHaZFe84Ld7Fl1-109" style="edgeStyle=orthogonalEdgeStyle;rounded=0;orthogonalLoop=1;jettySize=auto;html=1;entryX=0;entryY=0.5;entryDx=0;entryDy=0;" edge="1" parent="1" source="xqlagRpHaZFe84Ld7Fl1-77" target="xqlagRpHaZFe84Ld7Fl1-76">
          <mxGeometry relative="1" as="geometry" />
        </mxCell>
        <mxCell id="xqlagRpHaZFe84Ld7Fl1-115" style="edgeStyle=orthogonalEdgeStyle;rounded=0;orthogonalLoop=1;jettySize=auto;html=1;exitX=0.25;exitY=1;exitDx=0;exitDy=0;entryX=0;entryY=0.5;entryDx=0;entryDy=0;" edge="1" parent="1" source="xqlagRpHaZFe84Ld7Fl1-77" target="xqlagRpHaZFe84Ld7Fl1-114">
          <mxGeometry relative="1" as="geometry" />
        </mxCell>
        <mxCell id="xqlagRpHaZFe84Ld7Fl1-123" style="edgeStyle=orthogonalEdgeStyle;rounded=0;orthogonalLoop=1;jettySize=auto;html=1;exitX=0.25;exitY=1;exitDx=0;exitDy=0;entryX=0;entryY=0.5;entryDx=0;entryDy=0;" edge="1" parent="1" source="xqlagRpHaZFe84Ld7Fl1-77" target="xqlagRpHaZFe84Ld7Fl1-122">
          <mxGeometry relative="1" as="geometry" />
        </mxCell>
        <mxCell id="xqlagRpHaZFe84Ld7Fl1-77" value="&lt;b&gt;Integration&lt;/b&gt;&lt;b&gt;: &lt;/b&gt;UoW" style="rounded=0;whiteSpace=wrap;html=1;" vertex="1" parent="1">
          <mxGeometry x="585" y="760" width="90" height="40" as="geometry" />
        </mxCell>
        <mxCell id="xqlagRpHaZFe84Ld7Fl1-111" style="edgeStyle=orthogonalEdgeStyle;rounded=0;orthogonalLoop=1;jettySize=auto;html=1;entryX=0;entryY=0.5;entryDx=0;entryDy=0;" edge="1" parent="1" source="xqlagRpHaZFe84Ld7Fl1-78" target="xqlagRpHaZFe84Ld7Fl1-75">
          <mxGeometry relative="1" as="geometry" />
        </mxCell>
        <mxCell id="xqlagRpHaZFe84Ld7Fl1-78" value="&lt;b&gt;Integration&lt;/b&gt;&lt;b&gt;: &lt;/b&gt;ORM" style="rounded=0;whiteSpace=wrap;html=1;" vertex="1" parent="1">
          <mxGeometry x="900" y="760" width="90" height="40" as="geometry" />
        </mxCell>
        <mxCell id="xqlagRpHaZFe84Ld7Fl1-84" value="Services Error" style="rounded=0;whiteSpace=wrap;html=1;" vertex="1" parent="1">
          <mxGeometry x="390" y="520" width="100" height="40" as="geometry" />
        </mxCell>
        <mxCell id="xqlagRpHaZFe84Ld7Fl1-91" style="edgeStyle=orthogonalEdgeStyle;rounded=0;orthogonalLoop=1;jettySize=auto;html=1;entryX=0.5;entryY=1;entryDx=0;entryDy=0;exitX=0.5;exitY=1;exitDx=0;exitDy=0;exitPerimeter=0;" edge="1" parent="1" source="xqlagRpHaZFe84Ld7Fl1-85" target="xqlagRpHaZFe84Ld7Fl1-5">
          <mxGeometry relative="1" as="geometry">
            <Array as="points">
              <mxPoint x="255" y="540" />
            </Array>
          </mxGeometry>
        </mxCell>
        <mxCell id="xqlagRpHaZFe84Ld7Fl1-85" value="" style="verticalLabelPosition=bottom;aspect=fixed;html=1;verticalAlign=top;fillColor=strokeColor;align=center;outlineConnect=0;shape=mxgraph.fluid_power.x12000;points=[[0.5,0,0],[0.5,1,0]];rotation=90;" vertex="1" parent="1">
          <mxGeometry x="290" y="494.94" width="52.44" height="90.12" as="geometry" />
        </mxCell>
        <mxCell id="xqlagRpHaZFe84Ld7Fl1-89" style="edgeStyle=orthogonalEdgeStyle;rounded=0;orthogonalLoop=1;jettySize=auto;html=1;" edge="1" parent="1" source="xqlagRpHaZFe84Ld7Fl1-88" target="xqlagRpHaZFe84Ld7Fl1-5">
          <mxGeometry relative="1" as="geometry" />
        </mxCell>
        <mxCell id="xqlagRpHaZFe84Ld7Fl1-88" value="Client" style="ellipse;whiteSpace=wrap;html=1;aspect=fixed;" vertex="1" parent="1">
          <mxGeometry x="19.999999999999773" y="370" width="80" height="80" as="geometry" />
        </mxCell>
        <mxCell id="xqlagRpHaZFe84Ld7Fl1-95" style="edgeStyle=orthogonalEdgeStyle;rounded=0;orthogonalLoop=1;jettySize=auto;html=1;exitX=0.5;exitY=1;exitDx=0;exitDy=0;" edge="1" parent="1" source="xqlagRpHaZFe84Ld7Fl1-92" target="xqlagRpHaZFe84Ld7Fl1-85">
          <mxGeometry relative="1" as="geometry">
            <Array as="points">
              <mxPoint x="780" y="590" />
              <mxPoint x="316" y="590" />
            </Array>
          </mxGeometry>
        </mxCell>
        <mxCell id="xqlagRpHaZFe84Ld7Fl1-92" value="DB Error" style="rounded=0;whiteSpace=wrap;html=1;" vertex="1" parent="1">
          <mxGeometry x="730" y="520" width="100" height="40" as="geometry" />
        </mxCell>
        <mxCell id="xqlagRpHaZFe84Ld7Fl1-94" style="edgeStyle=orthogonalEdgeStyle;rounded=0;orthogonalLoop=1;jettySize=auto;html=1;entryX=0.5;entryY=0;entryDx=0;entryDy=0;entryPerimeter=0;" edge="1" parent="1" source="xqlagRpHaZFe84Ld7Fl1-84" target="xqlagRpHaZFe84Ld7Fl1-85">
          <mxGeometry relative="1" as="geometry" />
        </mxCell>
        <mxCell id="xqlagRpHaZFe84Ld7Fl1-100" style="edgeStyle=orthogonalEdgeStyle;rounded=0;orthogonalLoop=1;jettySize=auto;html=1;exitX=0.5;exitY=1;exitDx=0;exitDy=0;" edge="1" parent="1" source="xqlagRpHaZFe84Ld7Fl1-99" target="xqlagRpHaZFe84Ld7Fl1-85">
          <mxGeometry relative="1" as="geometry">
            <Array as="points">
              <mxPoint x="1060" y="590" />
              <mxPoint x="316" y="590" />
            </Array>
          </mxGeometry>
        </mxCell>
        <mxCell id="xqlagRpHaZFe84Ld7Fl1-99" value="Domain Error" style="rounded=0;whiteSpace=wrap;html=1;" vertex="1" parent="1">
          <mxGeometry x="1010" y="520" width="100" height="40" as="geometry" />
        </mxCell>
        <mxCell id="xqlagRpHaZFe84Ld7Fl1-103" value="Fake Repo" style="rounded=0;whiteSpace=wrap;html=1;" vertex="1" parent="1">
          <mxGeometry x="440" y="870" width="90" height="30" as="geometry" />
        </mxCell>
        <mxCell id="xqlagRpHaZFe84Ld7Fl1-106" style="edgeStyle=orthogonalEdgeStyle;rounded=0;orthogonalLoop=1;jettySize=auto;html=1;entryX=0;entryY=0.5;entryDx=0;entryDy=0;" edge="1" parent="1" source="xqlagRpHaZFe84Ld7Fl1-105" target="xqlagRpHaZFe84Ld7Fl1-47">
          <mxGeometry relative="1" as="geometry" />
        </mxCell>
        <mxCell id="xqlagRpHaZFe84Ld7Fl1-105" value="Tests" style="ellipse;whiteSpace=wrap;html=1;aspect=fixed;" vertex="1" parent="1">
          <mxGeometry x="29.999999999999773" y="740" width="80" height="80" as="geometry" />
        </mxCell>
        <mxCell id="xqlagRpHaZFe84Ld7Fl1-114" value="in-memory DB" style="rounded=0;whiteSpace=wrap;html=1;" vertex="1" parent="1">
          <mxGeometry x="630" y="820" width="90" height="30" as="geometry" />
        </mxCell>
        <mxCell id="xqlagRpHaZFe84Ld7Fl1-116" value="Model Fixtures" style="rounded=0;whiteSpace=wrap;html=1;" vertex="1" parent="1">
          <mxGeometry x="1110" y="820" width="90" height="30" as="geometry" />
        </mxCell>
        <mxCell id="xqlagRpHaZFe84Ld7Fl1-121" value="&lt;font style=&quot;font-size: 8px;&quot;&gt;&lt;b&gt;UoW Session&lt;/b&gt;&lt;/font&gt;" style="text;html=1;align=left;verticalAlign=middle;whiteSpace=wrap;rounded=0;" vertex="1" parent="1">
          <mxGeometry x="745" y="81" width="75" height="30" as="geometry" />
        </mxCell>
        <mxCell id="xqlagRpHaZFe84Ld7Fl1-122" value="in-memory Session" style="rounded=0;whiteSpace=wrap;html=1;" vertex="1" parent="1">
          <mxGeometry x="630" y="870" width="90" height="30" as="geometry" />
        </mxCell>
        <mxCell id="xqlagRpHaZFe84Ld7Fl1-124" value="in-memory DB" style="rounded=0;whiteSpace=wrap;html=1;" vertex="1" parent="1">
          <mxGeometry x="790" y="820" width="90" height="30" as="geometry" />
        </mxCell>
        <mxCell id="xqlagRpHaZFe84Ld7Fl1-125" value="in-memory Session" style="rounded=0;whiteSpace=wrap;html=1;" vertex="1" parent="1">
          <mxGeometry x="790" y="870" width="90" height="30" as="geometry" />
        </mxCell>
        <mxCell id="xqlagRpHaZFe84Ld7Fl1-126" value="in-memory DB" style="rounded=0;whiteSpace=wrap;html=1;" vertex="1" parent="1">
          <mxGeometry x="940" y="820" width="90" height="30" as="geometry" />
        </mxCell>
        <mxCell id="xqlagRpHaZFe84Ld7Fl1-127" value="in-memory Session" style="rounded=0;whiteSpace=wrap;html=1;" vertex="1" parent="1">
          <mxGeometry x="940" y="870" width="90" height="30" as="geometry" />
        </mxCell>
      </root>
    </mxGraphModel>
  </diagram>
</mxfile>
